<?xml version="1.0" encoding="UTF-8" standalone="no"?>
<!DOCTYPE svg PUBLIC "-//W3C//DTD SVG 1.1//EN"
"http://www.w3.org/Graphics/SVG/1.1/DTD/svg11.dtd">


<!-- Page 1 -->
<svg x="0" y="0" width="572" height="572" viewBox="0 0 572 572" version="1.1" xmlns="http://www.w3.org/2000/svg" xmlns:xlink="http://www.w3.org/1999/xlink"
style="display: block;margin-left: auto;margin-right: auto;">
<defs>

<style type="text/css"><![CDATA[

.g1_1{
fill: #FFFFFF;
}
.g2_1{
fill: #716BAA;
}

.s1_1{
font-size: 56.99px;
font-family: Lustria-Regular_d;
fill: #716BAA;
}
.s2_1{
font-size: 43.04px;
font-family: GrandHotel-Regular_e;
fill: #FFFFFF;
}

]]></style>

</defs>
<path d="M0,0
L0,572
L572,572
L572,0 Z " 
fill="#FFFFFF" stroke="none" />
<path d="M0,0L572.9,0l0,574.1L0,574.1L0,0Z" class="g1_1" />
<path d="M0,0L572.9,0l0,572.9L0,572.9L0,0Z" class="g1_1" />
<text 
x="126" 
y="359" 
dx="0,0,0,0,0,0,0,0,0,0" 
class="s1_1"
>Wan Beauty</text>

<path d="M273.3,274.4c5,0,9.3,-3.2,10.8,-7.7c3.6,3.1,8.9,3.8,13.2,1.3c4.4,-2.5,6.5,-7.5,5.5,-12.1c4.7,0.9,9.7,-1.2,12.2,-5.5c2.5,-4.4,1.8,-9.7,-1.3,-13.3c4.5,-1.5,7.7,-5.8,7.7,-10.8c0,-5,-3.2,-9.3,-7.7,-10.8c3.1,-3.6,3.8,-8.9,1.3,-13.3c-2.5,-4.3,-7.5,-6.4,-12.2,-5.5c1,-4.6,-1.1,-9.6,-5.5,-12.1c-4.3,-2.5,-9.6,-1.8,-13.2,1.3c-1.5,-4.5,-5.8,-7.7,-10.8,-7.7c-5,0,-9.3,3.2,-10.8,7.7c-3.6,-3.1,-8.9,-3.8,-13.3,-1.3c-4.3,2.5,-6.4,7.5,-5.5,12.1c-4.6,-0.9,-9.6,1.2,-12.1,5.5c-2.5,4.4,-1.8,9.7,1.3,13.3c-4.5,1.5,-7.7,5.8,-7.7,10.8c0,5,3.2,9.3,7.7,10.8c-3.1,3.6,-3.8,8.9,-1.3,13.3c2.5,4.3,7.5,6.4,12.1,5.5c-0.9,4.6,1.2,9.6,5.5,12.1c4.4,2.5,9.7,1.8,13.3,-1.3c1.5,4.5,5.8,7.7,10.8,7.7Z" class="g2_1" />
<text 
transform="matrix(0, 1, -1, 0, 261, 238)"
dx="0" 
class="s2_1"
>)</text>



<!-- Any embedded fonts defined here -->
<style type="text/css" ><![CDATA[

@font-face {
	font-family: GrandHotel-Regular_e;
	src: url("fonts/GrandHotel-Regular_e.woff") format("woff");
}

@font-face {
	font-family: Lustria-Regular_d;
	src: url("fonts/Lustria-Regular_d.woff") format("woff");
}

]]></style>

</svg>
